<svg xmlns="http://www.w3.org/2000/svg" xmlns:xlink="http://www.w3.org/1999/xlink" xmlns:inkscape="http://www.inkscape.org/namespaces/inkscape" version="1.1" width="171.874" height="157.759" viewBox="0 0 171.874 157.759">
<path transform="matrix(1,0,0,-1,73.353,56.328996)" d="M-31.66737-35.54845H31.667382V26.81443H-31.66737Z" fill="#ccccff"/>
<path transform="matrix(1,0,0,-1,73.353,56.328996)" stroke-width=".3985" stroke-linecap="butt" stroke-miterlimit="10" stroke-linejoin="miter" fill="none" stroke="#000000" d="M-31.66737-35.54845H31.667382V26.81443H-31.66737Z"/>
<text xml:space="preserve" transform="matrix(1 0 -0 1 -.0000038146974 157.759)" font-size="11.9552" font-family="Computer Modern" font-weight="bold"><tspan y="-101.43" x="63.418 72.76697">TN</tspan></text>
<text xml:space="preserve" transform="matrix(1 0 -0 1 -.0000038146974 157.759)" font-size="11.9552" font-family="Computer Modern"><tspan y="-87.482" x="46.69 51.24493 59.697259 65.555309 70.11024 74.66517 79.865688 85.0662 89.62113 95.47918">(Correcto)</tspan></text>
<path transform="matrix(1,0,0,-1,136.687,56.328996)" d="M-31.66737-35.54845H31.667382V26.81443H-31.66737Z" fill="#ffe6e6"/>
<path transform="matrix(1,0,0,-1,136.687,56.328996)" stroke-width=".3985" stroke-linecap="butt" stroke-miterlimit="10" stroke-linejoin="miter" fill="none" stroke="#000000" d="M-31.66737-35.54845H31.667382V26.81443H-31.66737Z"/>
<text xml:space="preserve" transform="matrix(1 0 -0 1 -.0000076293949 157.759)" font-size="11.9552" font-family="Computer Modern" font-weight="bold"><tspan y="-101.43" x="127.866 136.31833">FP</tspan></text>
<text xml:space="preserve" transform="matrix(1 0 -0 1 -.0000076293949 157.759)" font-size="11.9552" font-family="Computer Modern"><tspan y="-87.482" x="114.045 118.59993 126.562099 131.11704 135.67197 141.53002 150.56815 154.78833">(ErrorI)</tspan></text>
<path transform="matrix(1,0,0,-1,73.353,118.690998)" d="M-31.66737-35.54845H31.667382V26.81443H-31.66737Z" fill="#ffe6e6"/>
<path transform="matrix(1,0,0,-1,73.353,118.690998)" stroke-width=".3985" stroke-linecap="butt" stroke-miterlimit="10" stroke-linejoin="miter" fill="none" stroke="#000000" d="M-31.66737-35.54845H31.667382V26.81443H-31.66737Z"/>
<text xml:space="preserve" transform="matrix(1 0 -0 1 -.0000038146974 157.759)" font-size="11.9552" font-family="Computer Modern" font-weight="bold"><tspan y="-39.068" x="63.868 72.32033">FN</tspan></text>
<text xml:space="preserve" transform="matrix(1 0 -0 1 -.0000038146974 157.759)" font-size="11.9552" font-family="Computer Modern"><tspan y="-25.12" x="48.437 52.991933 60.954095 65.509029 70.06396 75.922008 84.96014 89.50311 93.7233">(ErrorII)</tspan></text>
<path transform="matrix(1,0,0,-1,136.687,118.690998)" d="M-31.66737-35.54845H31.667382V26.81443H-31.66737Z" fill="#ccccff"/>
<path transform="matrix(1,0,0,-1,136.687,118.690998)" stroke-width=".3985" stroke-linecap="butt" stroke-miterlimit="10" stroke-linejoin="miter" fill="none" stroke="#000000" d="M-31.66737-35.54845H31.667382V26.81443H-31.66737Z"/>
<text xml:space="preserve" transform="matrix(1 0 -0 1 -.0000076293949 157.759)" font-size="11.9552" font-family="Computer Modern" font-weight="bold"><tspan y="-39.068" x="127.417 136.76596">TP</tspan></text>
<text xml:space="preserve" transform="matrix(1 0 -0 1 -.0000076293949 157.759)" font-size="11.9552" font-family="Computer Modern"><tspan y="-25.12" x="110.024 114.57893 123.03126 128.88932 133.44425 137.99918 143.19969 148.4002 152.95514 158.81319">(Correcto)</tspan></text>
<text xml:space="preserve" transform="matrix(1 0 -0 1 -.0000038146974 157.759)" font-size="11.9552" font-family="Computer Modern" font-weight="bold"><tspan y="-146.136" x="61.444 71.163578 74.905559 81.44505 86.75316 97.36938 106.56293 112.06232 118.195339 125.667339 129.40932 135.01631 142.48831">ClasePredicha</tspan></text>
<text fill="#333333" xml:space="preserve" transform="matrix(1 0 -0 1 -.0000038146974 157.759)" font-size="9.9626" font-family="Computer Modern" font-weight="bold"><tspan y="-134.798" x="60.9 67.79412 76.80031">LGG</tspan></text>
<text fill="#333333" xml:space="preserve" transform="matrix(1 0 -0 1 0 157.759)" font-size="9.9626" font-family="Computer Modern" font-weight="bold"><tspan y="-134.798" x="123.196 132.16234 141.16854">HGG</tspan></text>
<text xml:space="preserve" transform="matrix(0 -1 1 0 46.127996 134.877)" font-size="11.9552" font-family="Computer Modern" font-weight="bold"><tspan y="-34.505" x="11.623 21.342579 25.084557 31.624053 36.93216 47.548379 57.578794 63.71181 70.251308">ClaseReal</tspan></text>
<text fill="#333333" xml:space="preserve" transform="matrix(1 0 -0 1 -.0000019073487 157.759)" font-size="9.9626" font-family="Computer Modern" font-weight="bold"><tspan y="-93.645" x="10.226 17.12012 26.126309">LGG</tspan></text>
<text fill="#333333" xml:space="preserve" transform="matrix(1 0 -0 1 -.000005722046 157.759)" font-size="9.9626" font-family="Computer Modern" font-weight="bold"><tspan y="-31.283" x="5.316 14.28234 23.28853">HGG</tspan></text>
</svg>
