<svg xmlns="http://www.w3.org/2000/svg" xmlns:xlink="http://www.w3.org/1999/xlink" xmlns:inkscape="http://www.inkscape.org/namespaces/inkscape" version="1.1" width="526.694" height="232.053" viewBox="0 0 526.694 232.053">
<path transform="matrix(1,0,0,-1,45.46474,204.28874)" d="M-33.1587 99.1411C-33.1587 80.82782-18.31326 65.98239 0 65.98239 18.31326 65.98239 33.1587 80.82782 33.1587 99.1411V152.04814C33.1587 170.36142 18.31326 185.20685 0 185.20685-18.31326 185.20685-33.1587 170.36142-33.1587 152.04814ZM-33.1587 152.04814C-33.1587 133.73487-18.31326 118.88943 0 118.88943 18.31326 118.88943 33.1587 133.73487 33.1587 152.04814" fill="#7f807f" fill-opacity=".5"/>
<path transform="matrix(1,0,0,-1,43.32,202.144)" d="M-33.1587 99.1411C-33.1587 80.82782-18.31326 65.98239 0 65.98239 18.31326 65.98239 33.1587 80.82782 33.1587 99.1411V152.04814C33.1587 170.36142 18.31326 185.20685 0 185.20685-18.31326 185.20685-33.1587 170.36142-33.1587 152.04814ZM-33.1587 152.04814C-33.1587 133.73487-18.31326 118.88943 0 118.88943 18.31326 118.88943 33.1587 133.73487 33.1587 152.04814" fill="#f2f2f2"/>
<path transform="matrix(1,0,0,-1,43.32,202.144)" stroke-width=".3985" stroke-linecap="butt" stroke-miterlimit="10" stroke-linejoin="miter" fill="none" stroke="#595959" d="M-33.1587 99.1411C-33.1587 80.82782-18.31326 65.98239 0 65.98239 18.31326 65.98239 33.1587 80.82782 33.1587 99.1411V152.04814C33.1587 170.36142 18.31326 185.20685 0 185.20685-18.31326 185.20685-33.1587 170.36142-33.1587 152.04814ZM-33.1587 152.04814C-33.1587 133.73487-18.31326 118.88943 0 118.88943 18.31326 118.88943 33.1587 133.73487 33.1587 152.04814"/>
<text xml:space="preserve" transform="matrix(.9 0 -0 .9 1.3150005 220.0231)" font-size="8.9664" font-family="Computer Modern" font-weight="bold"><tspan y="-142.217" x="13.15 21.282525 26.438206 30.56275 35.870859 43.590929 51.2572 53.032548 54.21611 57.166059 63.056985 66.00693 70.72325 76.03136">DatosCl&#x00b4;&#x0131;nicos</tspan><tspan y="-131.258" x="14.443 23.579764 33.640066 38.948175 41.89812 46.766878 51.483205 57.37413 60.324079 65.47976 69.85536 74.72412">yMoleculares</tspan></text>
<text xml:space="preserve" transform="matrix(.9 0 -0 .9 1.3150005 220.0231)" font-size="8.9664" font-family="Computer Modern"><tspan y="-120.298999" x="34.71">(</tspan></text>
<text xml:space="preserve" transform="matrix(.9 0 -0 .9 1.3150005 220.0231)" font-size="8.9664" font-family="Computer Modern" font-style="italic"><tspan y="-120.298999" x="38.29656 46.097326 50.19497">X,y</tspan></text>
<text xml:space="preserve" transform="matrix(.9 0 -0 .9 1.3150005 220.0231)" font-size="8.9664" font-family="Computer Modern"><tspan y="-120.298999" x="55.05476">)</tspan></text>
<path transform="matrix(1,0,0,-1,45.46474,204.28874)" d="M128.7702 167.10338H75.32541C73.12447 167.10338 71.3403 165.31922 71.3403 163.11827V143.02519C71.3403 140.82425 73.12447 139.04009 75.32541 139.04009H128.7702C130.97115 139.04009 132.75531 140.82425 132.75531 143.02519V163.11827C132.75531 165.31922 130.97115 167.10338 128.7702 167.10338ZM71.3403 139.04009" fill="#7f807f" fill-opacity=".5"/>
<path transform="matrix(1,0,0,-1,43.32,202.144)" d="M128.7702 167.10338H75.32541C73.12447 167.10338 71.3403 165.31922 71.3403 163.11827V143.02519C71.3403 140.82425 73.12447 139.04009 75.32541 139.04009H128.7702C130.97115 139.04009 132.75531 140.82425 132.75531 143.02519V163.11827C132.75531 165.31922 130.97115 167.10338 128.7702 167.10338ZM71.3403 139.04009" fill="#f2f2ff"/>
<path transform="matrix(1,0,0,-1,43.32,202.144)" stroke-width=".3985" stroke-linecap="butt" stroke-miterlimit="10" stroke-linejoin="miter" fill="none" stroke="#0000b3" d="M128.7702 167.10338H75.32541C73.12447 167.10338 71.3403 165.31922 71.3403 163.11827V143.02519C71.3403 140.82425 73.12447 139.04009 75.32541 139.04009H128.7702C130.97115 139.04009 132.75531 140.82425 132.75531 143.02519V163.11827C132.75531 165.31922 130.97115 167.10338 128.7702 167.10338ZM71.3403 139.04009"/>
<text xml:space="preserve" transform="matrix(.9 0 -0 .9 11.764801 214.44669)" font-size="8.9664" font-family="Computer Modern" font-weight="bold"><tspan y="-187.022" x="129.114 139.1743 145.06523 149.93399 154.12129 158.24584 162.62145">Muestra</tspan><tspan y="-176.063" x="117.647998 125.188739 130.79274 136.10085 140.22539 144.41269 148.53723 152.91284 158.06853">Bootstrap</tspan></text>
<text xml:space="preserve" transform="matrix(.9 0 -0 .9 11.764801 214.44669)" font-size="8.9664" font-family="Computer Modern" font-style="italic"><tspan y="-176.063" x="167.49222">D</tspan></text>
<text xml:space="preserve" transform="matrix(.9 0 -0 .9 11.764801 214.44669)" font-size="5.9776" font-family="Computer Modern"><tspan y="-175.067" x="175.094">1</tspan></text>
<path transform="matrix(1,0,0,-1,45.46474,204.28874)" d="M128.7702 116.07945H75.32541C73.12447 116.07945 71.3403 114.29529 71.3403 112.09435V92.00127C71.3403 89.80032 73.12447 88.01616 75.32541 88.01616H128.7702C130.97115 88.01616 132.75531 89.80032 132.75531 92.00127V112.09435C132.75531 114.29529 130.97115 116.07945 128.7702 116.07945ZM71.3403 88.01616" fill="#7f807f" fill-opacity=".5"/>
<path transform="matrix(1,0,0,-1,43.32,202.144)" d="M128.7702 116.07945H75.32541C73.12447 116.07945 71.3403 114.29529 71.3403 112.09435V92.00127C71.3403 89.80032 73.12447 88.01616 75.32541 88.01616H128.7702C130.97115 88.01616 132.75531 89.80032 132.75531 92.00127V112.09435C132.75531 114.29529 130.97115 116.07945 128.7702 116.07945ZM71.3403 88.01616" fill="#f2f2ff"/>
<path transform="matrix(1,0,0,-1,43.32,202.144)" stroke-width=".3985" stroke-linecap="butt" stroke-miterlimit="10" stroke-linejoin="miter" fill="none" stroke="#0000b3" d="M128.7702 116.07945H75.32541C73.12447 116.07945 71.3403 114.29529 71.3403 112.09435V92.00127C71.3403 89.80032 73.12447 88.01616 75.32541 88.01616H128.7702C130.97115 88.01616 132.75531 89.80032 132.75531 92.00127V112.09435C132.75531 114.29529 130.97115 116.07945 128.7702 116.07945ZM71.3403 88.01616"/>
<text xml:space="preserve" transform="matrix(.9 0 -0 .9 11.764801 219.549)" font-size="8.9664" font-family="Computer Modern" font-weight="bold"><tspan y="-135.999" x="129.114 139.1743 145.06523 149.93399 154.12129 158.24584 162.62145">Muestra</tspan><tspan y="-125.03999" x="117.647998 125.188739 130.79274 136.10085 140.22539 144.41269 148.53723 152.91284 158.06853">Bootstrap</tspan></text>
<text xml:space="preserve" transform="matrix(.9 0 -0 .9 11.764801 219.549)" font-size="8.9664" font-family="Computer Modern" font-style="italic"><tspan y="-125.03999" x="167.49222">D</tspan></text>
<text xml:space="preserve" transform="matrix(.9 0 -0 .9 11.764801 219.549)" font-size="5.9776" font-family="Computer Modern"><tspan y="-124.04399" x="175.094">2</tspan></text>
<text xml:space="preserve" transform="matrix(.9 0 -0 .9 14.412109 223.8595)" font-size="9.9626" font-family="Computer Modern"><tspan y="-89.905" x="144.121">.</tspan><tspan y="-85.92" x="144.121">.</tspan><tspan y="-81.935" x="144.121">.</tspan></text>
<path transform="matrix(1,0,0,-1,45.46474,204.28874)" d="M130.01805 39.5436H74.07758C71.87663 39.5436 70.09247 37.75943 70.09247 35.55849V15.46541C70.09247 13.26447 71.87663 11.4803 74.07758 11.4803H130.01805C132.219 11.4803 134.00316 13.26447 134.00316 15.46541V35.55849C134.00316 37.75943 132.219 39.5436 130.01805 39.5436ZM70.09247 11.4803" fill="#7f807f" fill-opacity=".5"/>
<path transform="matrix(1,0,0,-1,43.32,202.144)" d="M130.01805 39.5436H74.07758C71.87663 39.5436 70.09247 37.75943 70.09247 35.55849V15.46541C70.09247 13.26447 71.87663 11.4803 74.07758 11.4803H130.01805C132.219 11.4803 134.00316 13.26447 134.00316 15.46541V35.55849C134.00316 37.75943 132.219 39.5436 130.01805 39.5436ZM70.09247 11.4803" fill="#f2f2ff"/>
<path transform="matrix(1,0,0,-1,43.32,202.144)" stroke-width=".3985" stroke-linecap="butt" stroke-miterlimit="10" stroke-linejoin="miter" fill="none" stroke="#0000b3" d="M130.01805 39.5436H74.07758C71.87663 39.5436 70.09247 37.75943 70.09247 35.55849V15.46541C70.09247 13.26447 71.87663 11.4803 74.07758 11.4803H130.01805C132.219 11.4803 134.00316 13.26447 134.00316 15.46541V35.55849C134.00316 37.75943 132.219 39.5436 130.01805 39.5436ZM70.09247 11.4803"/>
<text xml:space="preserve" transform="matrix(.9 0 -0 .9 11.639999 227.2025)" font-size="8.9664" font-family="Computer Modern" font-weight="bold"><tspan y="-59.464" x="129.253 139.31331 145.20424 150.073 154.2603 158.38484 162.76045">Muestra</tspan><tspan y="-48.505" x="116.40001 123.94075 129.54476 134.85286 138.9774 143.1647 147.28925 151.66486 156.82054">Bootstrap</tspan></text>
<text xml:space="preserve" transform="matrix(.9 0 -0 .9 11.639999 227.2025)" font-size="8.9664" font-family="Computer Modern" font-style="italic"><tspan y="-48.505" x="166.24423">D</tspan></text>
<text xml:space="preserve" transform="matrix(.9 0 -0 .9 11.639999 227.2025)" font-size="5.9776" font-family="Computer Modern" font-style="italic"><tspan y="-47.509004" x="173.84702">N</tspan></text>
<path transform="matrix(1,0,0,-1,43.32,202.144)" stroke-width=".79701" stroke-linecap="butt" stroke-miterlimit="10" stroke-linejoin="miter" fill="none" stroke="#666666" d="M33.3524 102.04974H46.10838V153.07114H67.05034"/>
<path transform="matrix(1,0,0,-1,107.90527,49.07286)" d="M5.44046 0 1.28699 1.5706 2.66432 0 1.28699-1.5706Z" fill="#666666"/>
<path transform="matrix(1,0,0,-1,107.90527,49.07286)" stroke-width=".79701" stroke-linecap="butt" stroke-miterlimit="10" stroke-linejoin="miter" fill="none" stroke="#666666" d="M5.44046 0 1.28699 1.5706 2.66432 0 1.28699-1.5706Z"/>
<path transform="matrix(1,0,0,-1,43.32,202.144)" stroke-width=".79701" stroke-linecap="butt" stroke-miterlimit="10" stroke-linejoin="miter" fill="none" stroke="#666666" d="M33.3524 102.04974 67.05042 102.04759"/>
<path transform="matrix(.99998,.00005,.00005,-.99998,107.90537,100.0963)" d="M5.44046 0 1.28699 1.5706 2.66432 0 1.28699-1.5706Z" fill="#666666"/>
<path transform="matrix(.99998,.00005,.00005,-.99998,107.90537,100.0963)" stroke-width=".79701" stroke-linecap="butt" stroke-miterlimit="10" stroke-linejoin="miter" fill="none" stroke="#666666" d="M5.44046 0 1.28699 1.5706 2.66432 0 1.28699-1.5706Z"/>
<path transform="matrix(1,0,0,-1,43.32,202.144)" stroke-width=".79701" stroke-linecap="butt" stroke-miterlimit="10" stroke-linejoin="miter" fill="none" stroke="#666666" d="M33.3524 102.04974H46.10838V25.51183H65.80252"/>
<path transform="matrix(1,0,0,-1,106.657428,176.63217)" d="M5.44046 0 1.28699 1.5706 2.66432 0 1.28699-1.5706Z" fill="#666666"/>
<path transform="matrix(1,0,0,-1,106.657428,176.63217)" stroke-width=".79701" stroke-linecap="butt" stroke-miterlimit="10" stroke-linejoin="miter" fill="none" stroke="#666666" d="M5.44046 0 1.28699 1.5706 2.66432 0 1.28699-1.5706Z"/>
<path transform="matrix(1,0,0,-1,43.32,202.144)" d="M211.74843 153.07114C211.74843 157.29813 208.32186 160.7247 204.09485 160.7247 199.86785 160.7247 196.44129 157.29813 196.44129 153.07114 196.44129 148.84413 199.86785 145.41756 204.09485 145.41756 208.32186 145.41756 211.74843 148.84413 211.74843 153.07114ZM204.09485 153.07114" fill="#e6ffe6"/>
<path transform="matrix(1,0,0,-1,43.32,202.144)" stroke-width=".3985" stroke-linecap="butt" stroke-miterlimit="10" stroke-linejoin="miter" fill="none" stroke="#009900" d="M211.74843 153.07114C211.74843 157.29813 208.32186 160.7247 204.09485 160.7247 199.86785 160.7247 196.44129 157.29813 196.44129 153.07114 196.44129 148.84413 199.86785 145.41756 204.09485 145.41756 208.32186 145.41756 211.74843 148.84413 211.74843 153.07114ZM204.09485 153.07114"/>
<text xml:space="preserve" transform="matrix(.9 0 -0 .9 24.424393 213.9121)" font-size="6.9738" font-family="Computer Modern" font-style="italic"><tspan y="-181.409" x="244.244">f</tspan></text>
<text xml:space="preserve" transform="matrix(.9 0 -0 .9 24.424393 213.9121)" font-size="4.9813" font-family="Computer Modern" font-style="italic"><tspan y="-180.412" x="248.129">i</tspan></text>
<path transform="matrix(1,0,0,-1,43.32,202.144)" d="M193.89015 135.21285C193.89015 139.43985 190.46358 142.86643 186.23657 142.86643 182.00957 142.86643 178.583 139.43985 178.583 135.21285 178.583 130.98586 182.00957 127.55928 186.23657 127.55928 190.46358 127.55928 193.89015 130.98586 193.89015 135.21285ZM186.23657 135.21285" fill="#e6ffe6"/>
<path transform="matrix(1,0,0,-1,43.32,202.144)" stroke-width=".3985" stroke-linecap="butt" stroke-miterlimit="10" stroke-linejoin="miter" fill="none" stroke="#009900" d="M193.89015 135.21285C193.89015 139.43985 190.46358 142.86643 186.23657 142.86643 182.00957 142.86643 178.583 139.43985 178.583 135.21285 178.583 130.98586 182.00957 127.55928 186.23657 127.55928 190.46358 127.55928 193.89015 130.98586 193.89015 135.21285ZM186.23657 135.21285"/>
<text xml:space="preserve" transform="matrix(.9 0 -0 .9 22.613114 215.67049)" font-size="6.9738" font-family="Computer Modern" font-style="italic"><tspan y="-163.825" x="226.131">f</tspan></text>
<text xml:space="preserve" transform="matrix(.9 0 -0 .9 22.613114 215.67049)" font-size="4.9813" font-family="Computer Modern" font-style="italic"><tspan y="-162.828" x="230.01599">j</tspan></text>
<path transform="matrix(1,0,0,-1,43.32,202.144)" d="M232.02756 141.59082H211.87874C210.77826 141.59082 209.88619 140.69875 209.88619 139.59827V130.82744C209.88619 129.72698 210.77826 128.83489 211.87874 128.83489H232.02756C233.12804 128.83489 234.02011 129.72698 234.02011 130.82744V139.59827C234.02011 140.69875 233.12804 141.59082 232.02756 141.59082ZM209.88619 128.83489" fill="#ffe6cc"/>
<path transform="matrix(1,0,0,-1,43.32,202.144)" stroke-width=".3985" stroke-linecap="butt" stroke-miterlimit="10" stroke-linejoin="miter" fill="none" stroke="#cc6600" d="M232.02756 141.59082H211.87874C210.77826 141.59082 209.88619 140.69875 209.88619 139.59827V130.82744C209.88619 129.72698 210.77826 128.83489 211.87874 128.83489H232.02756C233.12804 128.83489 234.02011 129.72698 234.02011 130.82744V139.59827C234.02011 140.69875 233.12804 141.59082 232.02756 141.59082ZM209.88619 128.83489"/>
<text xml:space="preserve" transform="matrix(.9 0 -0 .9 25.619202 215.75629)" font-size="6.9738" font-family="Computer Modern" font-weight="bold"><tspan y="-162.967" x="256.192 263.24949 266.27613 269.61659">G-IV</tspan></text>
<path transform="matrix(1,0,0,-1,43.32,202.144)" d="M184.6844 123.73253H167.37871C166.27825 123.73253 165.38616 122.84044 165.38616 121.73997V112.96915C165.38616 111.86868 166.27825 110.9766 167.37871 110.9766H184.6844C185.78488 110.9766 186.67696 111.86868 186.67696 112.96915V121.73997C186.67696 122.84044 185.78488 123.73253 184.6844 123.73253ZM165.38616 110.9766" fill="#ffe6cc"/>
<path transform="matrix(1,0,0,-1,43.32,202.144)" stroke-width=".3985" stroke-linecap="butt" stroke-miterlimit="10" stroke-linejoin="miter" fill="none" stroke="#cc6600" d="M184.6844 123.73253H167.37871C166.27825 123.73253 165.38616 122.84044 165.38616 121.73997V112.96915C165.38616 111.86868 166.27825 110.9766 167.37871 110.9766H184.6844C185.78488 110.9766 186.67696 111.86868 186.67696 112.96915V121.73997C186.67696 122.84044 185.78488 123.73253 184.6844 123.73253ZM165.38616 110.9766"/>
<text xml:space="preserve" transform="matrix(.9 0 -0 .9 21.169312 217.54209)" font-size="6.9738" font-family="Computer Modern" font-weight="bold"><tspan y="-145.109" x="211.693 218.75048 221.7771 225.36164">G-II</tspan></text>
<path transform="matrix(1,0,0,-1,43.32,202.144)" d="M206.70984 123.73253H186.17255C185.07207 123.73253 184.18 122.84044 184.18 121.73997V112.96915C184.18 111.86868 185.07207 110.9766 186.17255 110.9766H206.70984C207.8103 110.9766 208.7024 111.86868 208.7024 112.96915V121.73997C208.7024 122.84044 207.8103 123.73253 206.70984 123.73253ZM184.18 110.9766" fill="#ffe6cc"/>
<path transform="matrix(1,0,0,-1,43.32,202.144)" stroke-width=".3985" stroke-linecap="butt" stroke-miterlimit="10" stroke-linejoin="miter" fill="none" stroke="#cc6600" d="M206.70984 123.73253H186.17255C185.07207 123.73253 184.18 122.84044 184.18 121.73997V112.96915C184.18 111.86868 185.07207 110.9766 186.17255 110.9766H206.70984C207.8103 110.9766 208.7024 111.86868 208.7024 112.96915V121.73997C208.7024 122.84044 207.8103 123.73253 206.70984 123.73253ZM184.18 110.9766"/>
<text xml:space="preserve" transform="matrix(.9 0 -0 .9 23.0486 217.54209)" font-size="6.9738" font-family="Computer Modern" font-weight="bold"><tspan y="-145.109" x="230.486 237.54347 240.5701 244.1616 247.74614">G-III</tspan></text>
<path transform="matrix(1,0,0,-1,43.32,202.144)" stroke-width=".3985" stroke-linecap="butt" stroke-miterlimit="10" stroke-linejoin="miter" fill="none" stroke="#000000" d="M198.5554 147.532 193.94094 142.91753"/>
<path transform="matrix(-.7071,.7071,.7071,.7071,238.47589,58.01152)" d="M4.21463 0 .64343 1.34572 1.8178 0 .64343-1.34572Z"/>
<path transform="matrix(-.7071,.7071,.7071,.7071,238.47589,58.01152)" stroke-width=".3985" stroke-linecap="butt" stroke-miterlimit="10" stroke-linejoin="miter" fill="none" stroke="#000000" d="M4.21463 0 .64343 1.34572 1.8178 0 .64343-1.34572Z"/>
<path transform="matrix(1,0,0,-1,43.32,202.144)" stroke-width=".3985" stroke-linecap="butt" stroke-miterlimit="10" stroke-linejoin="miter" fill="none" stroke="#000000" d="M209.6325 147.53177 213.22908 143.93589"/>
<path transform="matrix(.70715,.70703,.70703,-.70715,255.33408,56.993318)" d="M4.21463 0 .64343 1.34572 1.8178 0 .64343-1.34572Z"/>
<path transform="matrix(.70715,.70703,.70703,-.70715,255.33408,56.993318)" stroke-width=".3985" stroke-linecap="butt" stroke-miterlimit="10" stroke-linejoin="miter" fill="none" stroke="#000000" d="M4.21463 0 .64343 1.34572 1.8178 0 .64343-1.34572Z"/>
<path transform="matrix(1,0,0,-1,43.32,202.144)" stroke-width=".3985" stroke-linecap="butt" stroke-miterlimit="10" stroke-linejoin="miter" fill="none" stroke="#000000" d="M182.34922 128.41214 181.29726 126.5714"/>
<path transform="matrix(-.49615,.86818,.86818,.49615,225.46973,74.0809)" d="M4.21463 0 .64343 1.34572 1.8178 0 .64343-1.34572Z"/>
<path transform="matrix(-.49615,.86818,.86818,.49615,225.46973,74.0809)" stroke-width=".3985" stroke-linecap="butt" stroke-miterlimit="10" stroke-linejoin="miter" fill="none" stroke="#000000" d="M4.21463 0 .64343 1.34572 1.8178 0 .64343-1.34572Z"/>
<path transform="matrix(1,0,0,-1,43.32,202.144)" stroke-width=".3985" stroke-linecap="butt" stroke-miterlimit="10" stroke-linejoin="miter" fill="none" stroke="#000000" d="M190.12155 128.41164 191.1735 126.5713"/>
<path transform="matrix(.49622,.86815,.86815,-.49622,233.6409,74.081058)" d="M4.21463 0 .64343 1.34572 1.8178 0 .64343-1.34572Z"/>
<path transform="matrix(.49622,.86815,.86815,-.49622,233.6409,74.081058)" stroke-width=".3985" stroke-linecap="butt" stroke-miterlimit="10" stroke-linejoin="miter" fill="none" stroke="#000000" d="M4.21463 0 .64343 1.34572 1.8178 0 .64343-1.34572Z"/>
<text xml:space="preserve" transform="matrix(.9 0 -0 .9 22.567093 219.6087)" font-size="7.9701" font-family="Computer Modern" font-weight="bold"><tspan y="-126.369" x="226.905">&#x00b4;</tspan><tspan y="-124.443" x="225.671 233.01944 237.0523 242.75093 247.6366">Arbol</tspan></text>
<text xml:space="preserve" transform="matrix(.9 0 -0 .9 22.567093 219.6087)" font-size="7.9701" font-family="Computer Modern" font-style="italic"><tspan y="-124.443" x="253.59824">h</tspan></text>
<text xml:space="preserve" transform="matrix(.9 0 -0 .9 22.567093 219.6087)" font-size="5.9776" font-family="Computer Modern"><tspan y="-123.336" x="258.479">1</tspan></text>
<text xml:space="preserve" transform="matrix(.9 0 -0 .9 22.567093 219.6087)" font-size="7.9701" font-family="Computer Modern"><tspan y="-124.443" x="262.631">(</tspan></text>
<text xml:space="preserve" transform="matrix(.9 0 -0 .9 22.567093 219.6087)" font-size="7.9701" font-family="Computer Modern" font-style="italic"><tspan y="-124.443" x="265.92268">x</tspan></text>
<text xml:space="preserve" transform="matrix(.9 0 -0 .9 22.567093 219.6087)" font-size="7.9701" font-family="Computer Modern"><tspan y="-124.443" x="270.68879">)</tspan></text>
<path transform="matrix(1,0,0,-1,43.32,202.144)" d="M211.74843 102.04741C211.74843 106.27441 208.32186 109.70097 204.09485 109.70097 199.86785 109.70097 196.44129 106.27441 196.44129 102.04741 196.44129 97.8204 199.86785 94.39383 204.09485 94.39383 208.32186 94.39383 211.74843 97.8204 211.74843 102.04741ZM204.09485 102.04741" fill="#e6ffe6"/>
<path transform="matrix(1,0,0,-1,43.32,202.144)" stroke-width=".3985" stroke-linecap="butt" stroke-miterlimit="10" stroke-linejoin="miter" fill="none" stroke="#009900" d="M211.74843 102.04741C211.74843 106.27441 208.32186 109.70097 204.09485 109.70097 199.86785 109.70097 196.44129 106.27441 196.44129 102.04741 196.44129 97.8204 199.86785 94.39383 204.09485 94.39383 208.32186 94.39383 211.74843 97.8204 211.74843 102.04741ZM204.09485 102.04741"/>
<text xml:space="preserve" transform="matrix(.9 0 -0 .9 24.17241 219.0755)" font-size="6.9738" font-family="Computer Modern"><tspan y="-129.775" x="241.724 243.78127 249.13018">IDH</tspan></text>
<path transform="matrix(1,0,0,-1,43.32,202.144)" d="M194.88944 90.56711H177.58374C176.48328 90.56711 175.59119 89.67502 175.59119 88.57455V79.80373C175.59119 78.70325 176.48328 77.81117 177.58374 77.81117H194.88944C195.9899 77.81117 196.88199 78.70325 196.88199 79.80373V88.57455C196.88199 89.67502 195.9899 90.56711 194.88944 90.56711ZM175.59119 77.81117" fill="#ffe6cc"/>
<path transform="matrix(1,0,0,-1,43.32,202.144)" stroke-width=".3985" stroke-linecap="butt" stroke-miterlimit="10" stroke-linejoin="miter" fill="none" stroke="#cc6600" d="M194.88944 90.56711H177.58374C176.48328 90.56711 175.59119 89.67502 175.59119 88.57455V79.80373C175.59119 78.70325 176.48328 77.81117 177.58374 77.81117H194.88944C195.9899 77.81117 196.88199 78.70325 196.88199 79.80373V88.57455C196.88199 89.67502 195.9899 90.56711 194.88944 90.56711ZM175.59119 77.81117"/>
<text xml:space="preserve" transform="matrix(.9 0 -0 .9 22.189713 220.85858)" font-size="6.9738" font-family="Computer Modern" font-weight="bold"><tspan y="-111.944" x="221.897 228.95449 231.98111 235.57262">G-II</tspan></text>
<path transform="matrix(1,0,0,-1,43.32,202.144)" d="M229.6067 84.18913C229.6067 88.41612 226.18013 91.8427 221.95314 91.8427 217.72614 91.8427 214.29956 88.41612 214.29956 84.18913 214.29956 79.96213 217.72614 76.53555 221.95314 76.53555 226.18013 76.53555 229.6067 79.96213 229.6067 84.18913ZM221.95314 84.18913" fill="#e6ffe6"/>
<path transform="matrix(1,0,0,-1,43.32,202.144)" stroke-width=".3985" stroke-linecap="butt" stroke-miterlimit="10" stroke-linejoin="miter" fill="none" stroke="#009900" d="M229.6067 84.18913C229.6067 88.41612 226.18013 91.8427 221.95314 91.8427 217.72614 91.8427 214.29956 88.41612 214.29956 84.18913 214.29956 79.96213 217.72614 76.53555 221.95314 76.53555 226.18013 76.53555 229.6067 79.96213 229.6067 84.18913ZM221.95314 84.18913"/>
<text xml:space="preserve" transform="matrix(.9 0 -0 .9 26.156205 220.8002)" font-size="6.9738" font-family="Computer Modern" font-style="italic"><tspan y="-112.528" x="261.562">f</tspan></text>
<text xml:space="preserve" transform="matrix(.9 0 -0 .9 26.156205 220.8002)" font-size="4.9813" font-family="Computer Modern" font-style="italic"><tspan y="-111.47" x="265.44703">k</tspan></text>
<path transform="matrix(1,0,0,-1,43.32,202.144)" d="M222.01717 72.7088H201.47988C200.3794 72.7088 199.48732 71.81673 199.48732 70.71625V61.94542C199.48732 60.84496 200.3794 59.95287 201.47988 59.95287H222.01717C223.11763 59.95287 224.00972 60.84496 224.00972 61.94542V70.71625C224.00972 71.81673 223.11763 72.7088 222.01717 72.7088ZM199.48732 59.95287" fill="#ffe6cc"/>
<path transform="matrix(1,0,0,-1,43.32,202.144)" stroke-width=".3985" stroke-linecap="butt" stroke-miterlimit="10" stroke-linejoin="miter" fill="none" stroke="#cc6600" d="M222.01717 72.7088H201.47988C200.3794 72.7088 199.48732 71.81673 199.48732 70.71625V61.94542C199.48732 60.84496 200.3794 59.95287 201.47988 59.95287H222.01717C223.11763 59.95287 224.00972 60.84496 224.00972 61.94542V70.71625C224.00972 71.81673 223.11763 72.7088 222.01717 72.7088ZM199.48732 59.95287"/>
<text xml:space="preserve" transform="matrix(.9 0 -0 .9 24.5793 222.64449)" font-size="6.9738" font-family="Computer Modern" font-weight="bold"><tspan y="-94.085" x="245.793 252.85048 255.8771 259.46864 263.05317">G-III</tspan></text>
<path transform="matrix(1,0,0,-1,43.32,202.144)" d="M242.23259 72.7088H222.08377C220.98329 72.7088 220.09122 71.81673 220.09122 70.71625V61.94542C220.09122 60.84496 220.98329 59.95287 222.08377 59.95287H242.23259C243.33306 59.95287 244.22515 60.84496 244.22515 61.94542V70.71625C244.22515 71.81673 243.33306 72.7088 242.23259 72.7088ZM220.09122 59.95287" fill="#ffe6cc"/>
<path transform="matrix(1,0,0,-1,43.32,202.144)" stroke-width=".3985" stroke-linecap="butt" stroke-miterlimit="10" stroke-linejoin="miter" fill="none" stroke="#cc6600" d="M242.23259 72.7088H222.08377C220.98329 72.7088 220.09122 71.81673 220.09122 70.71625V61.94542C220.09122 60.84496 220.98329 59.95287 222.08377 59.95287H242.23259C243.33306 59.95287 244.22515 60.84496 244.22515 61.94542V70.71625C244.22515 71.81673 243.33306 72.7088 242.23259 72.7088ZM220.09122 59.95287"/>
<text xml:space="preserve" transform="matrix(.9 0 -0 .9 26.63971 222.64449)" font-size="6.9738" font-family="Computer Modern" font-weight="bold"><tspan y="-94.085" x="266.397 273.4545 276.48115 279.8216">G-IV</tspan></text>
<path transform="matrix(1,0,0,-1,43.32,202.144)" stroke-width=".3985" stroke-linecap="butt" stroke-miterlimit="10" stroke-linejoin="miter" fill="none" stroke="#000000" d="M198.55516 96.50894 194.95839 92.91245"/>
<path transform="matrix(-.70712,.70706,.70706,.70712,239.49335,108.01668)" d="M4.21463 0 .64343 1.34572 1.8178 0 .64343-1.34572Z"/>
<path transform="matrix(-.70712,.70706,.70706,.70712,239.49335,108.01668)" stroke-width=".3985" stroke-linecap="butt" stroke-miterlimit="10" stroke-linejoin="miter" fill="none" stroke="#000000" d="M4.21463 0 .64343 1.34572 1.8178 0 .64343-1.34572Z"/>
<path transform="matrix(1,0,0,-1,43.32,202.144)" stroke-width=".3985" stroke-linecap="butt" stroke-miterlimit="10" stroke-linejoin="miter" fill="none" stroke="#000000" d="M209.63227 96.50812 214.24697 91.89362"/>
<path transform="matrix(.70712,.70706,.70706,-.70712,256.352,109.03553)" d="M4.21463 0 .64343 1.34572 1.8178 0 .64343-1.34572Z"/>
<path transform="matrix(.70712,.70706,.70706,-.70712,256.352,109.03553)" stroke-width=".3985" stroke-linecap="butt" stroke-miterlimit="10" stroke-linejoin="miter" fill="none" stroke="#000000" d="M4.21463 0 .64343 1.34572 1.8178 0 .64343-1.34572Z"/>
<path transform="matrix(1,0,0,-1,43.32,202.144)" stroke-width=".3985" stroke-linecap="butt" stroke-miterlimit="10" stroke-linejoin="miter" fill="none" stroke="#000000" d="M218.06565 77.3886 217.01377 75.54791"/>
<path transform="matrix(-.49612,.8682,.8682,.49612,261.1862,125.10437)" d="M4.21463 0 .64343 1.34572 1.8178 0 .64343-1.34572Z"/>
<path transform="matrix(-.49612,.8682,.8682,.49612,261.1862,125.10437)" stroke-width=".3985" stroke-linecap="butt" stroke-miterlimit="10" stroke-linejoin="miter" fill="none" stroke="#000000" d="M4.21463 0 .64343 1.34572 1.8178 0 .64343-1.34572Z"/>
<path transform="matrix(1,0,0,-1,43.32,202.144)" stroke-width=".3985" stroke-linecap="butt" stroke-miterlimit="10" stroke-linejoin="miter" fill="none" stroke="#000000" d="M225.83812 77.38812 226.89009 75.54776"/>
<path transform="matrix(.49623,.86815,.86815,-.49623,269.35749,125.10458)" d="M4.21463 0 .64343 1.34572 1.8178 0 .64343-1.34572Z"/>
<path transform="matrix(.49623,.86815,.86815,-.49623,269.35749,125.10458)" stroke-width=".3985" stroke-linecap="butt" stroke-miterlimit="10" stroke-linejoin="miter" fill="none" stroke="#000000" d="M4.21463 0 .64343 1.34572 1.8178 0 .64343-1.34572Z"/>
<text xml:space="preserve" transform="matrix(.9 0 -0 .9 22.567093 224.711)" font-size="7.9701" font-family="Computer Modern" font-weight="bold"><tspan y="-75.346" x="226.905">&#x00b4;</tspan><tspan y="-73.42" x="225.671 233.01944 237.0523 242.75093 247.6366">Arbol</tspan></text>
<text xml:space="preserve" transform="matrix(.9 0 -0 .9 22.567093 224.711)" font-size="7.9701" font-family="Computer Modern" font-style="italic"><tspan y="-73.42" x="253.59824">h</tspan></text>
<text xml:space="preserve" transform="matrix(.9 0 -0 .9 22.567093 224.711)" font-size="5.9776" font-family="Computer Modern"><tspan y="-72.312999" x="258.479">2</tspan></text>
<text xml:space="preserve" transform="matrix(.9 0 -0 .9 22.567093 224.711)" font-size="7.9701" font-family="Computer Modern"><tspan y="-73.42" x="262.631">(</tspan></text>
<text xml:space="preserve" transform="matrix(.9 0 -0 .9 22.567093 224.711)" font-size="7.9701" font-family="Computer Modern" font-style="italic"><tspan y="-73.42" x="265.92268">x</tspan></text>
<text xml:space="preserve" transform="matrix(.9 0 -0 .9 22.567093 224.711)" font-size="7.9701" font-family="Computer Modern"><tspan y="-73.42" x="270.68879">)</tspan></text>
<text xml:space="preserve" transform="matrix(.9 0 -0 .9 24.616806 223.8595)" font-size="9.9626" font-family="Computer Modern"><tspan y="-89.906" x="246.168">.</tspan><tspan y="-85.92" x="246.168">.</tspan><tspan y="-81.935" x="246.168">.</tspan></text>
<path transform="matrix(1,0,0,-1,43.32,202.144)" d="M211.74843 25.51183C211.74843 29.73883 208.32186 33.1654 204.09485 33.1654 199.86785 33.1654 196.44129 29.73883 196.44129 25.51183 196.44129 21.28484 199.86785 17.85826 204.09485 17.85826 208.32186 17.85826 211.74843 21.28484 211.74843 25.51183ZM204.09485 25.51183" fill="#e6ffe6"/>
<path transform="matrix(1,0,0,-1,43.32,202.144)" stroke-width=".3985" stroke-linecap="butt" stroke-miterlimit="10" stroke-linejoin="miter" fill="none" stroke="#009900" d="M211.74843 25.51183C211.74843 29.73883 208.32186 33.1654 204.09485 33.1654 199.86785 33.1654 196.44129 29.73883 196.44129 25.51183 196.44129 21.28484 199.86785 17.85826 204.09485 17.85826 208.32186 17.85826 211.74843 21.28484 211.74843 25.51183ZM204.09485 25.51183"/>
<text xml:space="preserve" transform="matrix(.9 0 -0 .9 24.268723 226.6679)" font-size="6.9738" font-family="Computer Modern" font-style="italic"><tspan y="-53.851" x="242.687">f</tspan></text>
<text xml:space="preserve" transform="matrix(.9 0 -0 .9 24.268723 226.6679)" font-size="4.9813" font-family="Computer Modern" font-style="italic"><tspan y="-52.855005" x="246.57199">m</tspan></text>
<path transform="matrix(1,0,0,-1,43.32,202.144)" d="M194.88944 14.03152H177.58374C176.48328 14.03152 175.59119 13.13943 175.59119 12.03897V3.26814C175.59119 2.16768 176.48328 1.27559 177.58374 1.27559H194.88944C195.9899 1.27559 196.88199 2.16768 196.88199 3.26814V12.03897C196.88199 13.13943 195.9899 14.03152 194.88944 14.03152ZM175.59119 1.27559" fill="#ffe6cc"/>
<path transform="matrix(1,0,0,-1,43.32,202.144)" stroke-width=".3985" stroke-linecap="butt" stroke-miterlimit="10" stroke-linejoin="miter" fill="none" stroke="#cc6600" d="M194.88944 14.03152H177.58374C176.48328 14.03152 175.59119 13.13943 175.59119 12.03897V3.26814C175.59119 2.16768 176.48328 1.27559 177.58374 1.27559H194.88944C195.9899 1.27559 196.88199 2.16768 196.88199 3.26814V12.03897C196.88199 13.13943 195.9899 14.03152 194.88944 14.03152ZM175.59119 1.27559"/>
<text xml:space="preserve" transform="matrix(.9 0 -0 .9 22.189713 228.5121)" font-size="6.9738" font-family="Computer Modern" font-weight="bold"><tspan y="-35.409" x="221.897 228.95449 231.98111 235.57262">G-II</tspan></text>
<path transform="matrix(1,0,0,-1,43.32,202.144)" d="M232.02756 14.03152H211.87874C210.77826 14.03152 209.88619 13.13943 209.88619 12.03897V3.26814C209.88619 2.16768 210.77826 1.27559 211.87874 1.27559H232.02756C233.12804 1.27559 234.02011 2.16768 234.02011 3.26814V12.03897C234.02011 13.13943 233.12804 14.03152 232.02756 14.03152ZM209.88619 1.27559" fill="#ffe6cc"/>
<path transform="matrix(1,0,0,-1,43.32,202.144)" stroke-width=".3985" stroke-linecap="butt" stroke-miterlimit="10" stroke-linejoin="miter" fill="none" stroke="#cc6600" d="M232.02756 14.03152H211.87874C210.77826 14.03152 209.88619 13.13943 209.88619 12.03897V3.26814C209.88619 2.16768 210.77826 1.27559 211.87874 1.27559H232.02756C233.12804 1.27559 234.02011 2.16768 234.02011 3.26814V12.03897C234.02011 13.13943 233.12804 14.03152 232.02756 14.03152ZM209.88619 1.27559"/>
<text xml:space="preserve" transform="matrix(.9 0 -0 .9 25.619202 228.5121)" font-size="6.9738" font-family="Computer Modern" font-weight="bold"><tspan y="-35.409" x="256.192 263.24949 266.27613 269.61659">G-IV</tspan></text>
<path transform="matrix(1,0,0,-1,43.32,202.144)" stroke-width=".3985" stroke-linecap="butt" stroke-miterlimit="10" stroke-linejoin="miter" fill="none" stroke="#000000" d="M198.55504 19.97366 194.95839 16.37721"/>
<path transform="matrix(-.70712,.70708,.70708,.70712,239.49335,184.55191)" d="M4.21463 0 .64343 1.34572 1.8178 0 .64343-1.34572Z"/>
<path transform="matrix(-.70712,.70708,.70708,.70712,239.49335,184.55191)" stroke-width=".3985" stroke-linecap="butt" stroke-miterlimit="10" stroke-linejoin="miter" fill="none" stroke="#000000" d="M4.21463 0 .64343 1.34572 1.8178 0 .64343-1.34572Z"/>
<path transform="matrix(1,0,0,-1,43.32,202.144)" stroke-width=".3985" stroke-linecap="butt" stroke-miterlimit="10" stroke-linejoin="miter" fill="none" stroke="#000000" d="M209.6325 19.97307 213.22908 16.37708"/>
<path transform="matrix(.70715,.70703,.70703,-.70715,255.33408,184.55213)" d="M4.21463 0 .64343 1.34572 1.8178 0 .64343-1.34572Z"/>
<path transform="matrix(.70715,.70703,.70703,-.70715,255.33408,184.55213)" stroke-width=".3985" stroke-linecap="butt" stroke-miterlimit="10" stroke-linejoin="miter" fill="none" stroke="#000000" d="M4.21463 0 .64343 1.34572 1.8178 0 .64343-1.34572Z"/>
<text xml:space="preserve" transform="matrix(.9 0 -0 .9 22.442307 230.57859)" font-size="7.9701" font-family="Computer Modern" font-weight="bold"><tspan y="-16.671" x="225.657">&#x00b4;</tspan><tspan y="-14.7439999" x="224.423 231.77144 235.8043 241.50293 246.3886">Arbol</tspan></text>
<text xml:space="preserve" transform="matrix(.9 0 -0 .9 22.442307 230.57859)" font-size="7.9701" font-family="Computer Modern" font-style="italic"><tspan y="-14.7439999" x="252.35024">h</tspan></text>
<text xml:space="preserve" transform="matrix(.9 0 -0 .9 22.442307 230.57859)" font-size="5.9776" font-family="Computer Modern" font-style="italic"><tspan y="-13.405" x="257.232">N</tspan></text>
<text xml:space="preserve" transform="matrix(.9 0 -0 .9 22.442307 230.57859)" font-size="7.9701" font-family="Computer Modern"><tspan y="-14.7439999" x="264.156">(</tspan></text>
<text xml:space="preserve" transform="matrix(.9 0 -0 .9 22.442307 230.57859)" font-size="7.9701" font-family="Computer Modern" font-style="italic"><tspan y="-14.7439999" x="267.44767">x</tspan></text>
<text xml:space="preserve" transform="matrix(.9 0 -0 .9 22.442307 230.57859)" font-size="7.9701" font-family="Computer Modern"><tspan y="-14.7439999" x="272.21379">)</tspan></text>
<path transform="matrix(1,0,0,-1,43.32,202.144)" stroke-width=".79701" stroke-linecap="butt" stroke-miterlimit="10" stroke-linejoin="miter" fill="none" stroke="#0000b3" d="M132.93412 153.07114 162.45072 120.40373"/>
<path transform="matrix(.67038,.74194,.74194,-.67038,204.1182,79.911319)" d="M5.44046 0 1.28699 1.5706 2.66432 0 1.28699-1.5706Z" fill="#0000b3"/>
<path transform="matrix(.67038,.74194,.74194,-.67038,204.1182,79.911319)" stroke-width=".79701" stroke-linecap="butt" stroke-miterlimit="10" stroke-linejoin="miter" fill="none" stroke="#0000b3" d="M5.44046 0 1.28699 1.5706 2.66432 0 1.28699-1.5706Z"/>
<path transform="matrix(1,0,0,-1,43.32,202.144)" stroke-width=".79701" stroke-linecap="butt" stroke-miterlimit="10" stroke-linejoin="miter" fill="none" stroke="#0000b3" d="M132.93412 102.04741 171.62229 85.78174"/>
<path transform="matrix(.9218,.38754,.38754,-.9218,212.66999,115.40694)" d="M5.44046 0 1.28699 1.5706 2.66432 0 1.28699-1.5706Z" fill="#0000b3"/>
<path transform="matrix(.9218,.38754,.38754,-.9218,212.66999,115.40694)" stroke-width=".79701" stroke-linecap="butt" stroke-miterlimit="10" stroke-linejoin="miter" fill="none" stroke="#0000b3" d="M5.44046 0 1.28699 1.5706 2.66432 0 1.28699-1.5706Z"/>
<path transform="matrix(1,0,0,-1,43.32,202.144)" stroke-width=".79701" stroke-linecap="butt" stroke-miterlimit="10" stroke-linejoin="miter" fill="none" stroke="#0000b3" d="M134.18196 25.51183 171.63967 9.28714"/>
<path transform="matrix(.91757,.39745,.39745,-.91757,212.69779,191.87712)" d="M5.44046 0 1.28699 1.5706 2.66432 0 1.28699-1.5706Z" fill="#0000b3"/>
<path transform="matrix(.91757,.39745,.39745,-.91757,212.69779,191.87712)" stroke-width=".79701" stroke-linecap="butt" stroke-miterlimit="10" stroke-linejoin="miter" fill="none" stroke="#0000b3" d="M5.44046 0 1.28699 1.5706 2.66432 0 1.28699-1.5706Z"/>
<path transform="matrix(1,0,0,-1,45.46474,204.28874)" d="M379.07307 103.32346H284.2378C282.03684 103.32346 280.25267 101.53929 280.25267 99.33835V79.24529C280.25267 77.04434 282.03684 75.26018 284.2378 75.26018H379.07307C381.274 75.26018 383.05818 77.04434 383.05818 79.24529V99.33835C383.05818 101.53929 381.274 103.32346 379.07307 103.32346ZM280.25267 75.26018" fill="#7f807f" fill-opacity=".5"/>
<path transform="matrix(1,0,0,-1,43.32,202.144)" d="M379.07307 103.32346H284.2378C282.03684 103.32346 280.25267 101.53929 280.25267 99.33835V79.24529C280.25267 77.04434 282.03684 75.26018 284.2378 75.26018H379.07307C381.274 75.26018 383.05818 77.04434 383.05818 79.24529V99.33835C383.05818 101.53929 381.274 103.32346 379.07307 103.32346ZM280.25267 75.26018" fill="#f2fff2"/>
<path transform="matrix(1,0,0,-1,43.32,202.144)" stroke-width=".3985" stroke-linecap="butt" stroke-miterlimit="10" stroke-linejoin="miter" fill="none" stroke="#009900" d="M379.07307 103.32346H284.2378C282.03684 103.32346 280.25267 101.53929 280.25267 99.33835V79.24529C280.25267 77.04434 282.03684 75.26018 284.2378 75.26018H379.07307C381.274 75.26018 383.05818 77.04434 383.05818 79.24529V99.33835C383.05818 101.53929 381.274 103.32346 379.07307 103.32346ZM280.25267 75.26018"/>
<text xml:space="preserve" transform="matrix(.9 0 -0 .9 32.655824 220.80548)" font-size="8.9664" font-family="Computer Modern" font-weight="bold"><tspan y="-123.433" x="330.987 338.10633 343.41444 347.53898 352.69465 357.41099 360.36094 360.3699 365.678 375.1017 385.16203 390.0218 395.3299 400.638 405.0136 407.96357 412.0881 417.24378 421.6194 424.56935">Votaci&#x00b4;onMayoritaria</tspan></text>
<text xml:space="preserve" transform="matrix(.9 0 -0 .9 32.655824 220.80548)" font-size="8.9664" font-family="Computer Modern"><tspan y="-112.475" x="327.196">&#x02c6;</tspan></text>
<text xml:space="preserve" transform="matrix(.9 0 -0 .9 32.655824 220.80548)" font-size="8.9664" font-family="Computer Modern" font-style="italic"><tspan y="-112.475" x="326.55943">y</tspan></text>
<text xml:space="preserve" transform="matrix(.9 0 -0 .9 32.655824 220.80548)" font-size="8.9664" font-family="Computer Modern"><tspan y="-112.475" x="333.9746">=</tspan></text>
<text xml:space="preserve" transform="matrix(.9 0 -0 .9 32.655824 220.80548)" font-size="8.9664" font-family="Computer Modern" font-weight="bold"><tspan y="-112.475" x="343.70317 352.54405 358.14805 364.03898">moda</tspan></text>
<text xml:space="preserve" transform="matrix(.9 0 -0 .9 32.655824 220.80548)" font-size="8.9664" font-family="Computer Modern" font-style="italic"><tspan y="-112.475" x="369.19465">{</tspan></text>
<text xml:space="preserve" transform="matrix(.9 0 -0 .9 32.655824 220.80548)" font-size="8.9664" font-family="Computer Modern" font-style="italic"><tspan y="-112.475" x="373.80339">h</tspan></text>
<text xml:space="preserve" transform="matrix(.9 0 -0 .9 32.655824 220.80548)" font-size="5.9776" font-family="Computer Modern"><tspan y="-111.478" x="379.11604">1</tspan></text>
<text xml:space="preserve" transform="matrix(.9 0 -0 .9 32.655824 220.80548)" font-size="8.9664" font-family="Computer Modern" font-style="italic"><tspan y="-112.475" x="383.26704 387.3647">,h</tspan></text>
<text xml:space="preserve" transform="matrix(.9 0 -0 .9 32.655824 220.80548)" font-size="5.9776" font-family="Computer Modern"><tspan y="-111.478" x="392.67304">2</tspan></text>
<text xml:space="preserve" transform="matrix(.9 0 -0 .9 32.655824 220.80548)" font-size="8.9664" font-family="Computer Modern" font-style="italic"><tspan y="-112.475" x="396.82405 400.9217 405.0283 409.12596 413.2236 417.32127">,...,h</tspan></text>
<text xml:space="preserve" transform="matrix(.9 0 -0 .9 32.655824 220.80548)" font-size="5.9776" font-family="Computer Modern" font-style="italic"><tspan y="-111.478" x="422.61305">N</tspan></text>
<text xml:space="preserve" transform="matrix(.9 0 -0 .9 32.655824 220.80548)" font-size="8.9664" font-family="Computer Modern" font-style="italic"><tspan y="-112.475" x="429.53706">}</tspan></text>
<path transform="matrix(1,0,0,-1,43.32,202.144)" stroke-width=".79701" stroke-linecap="butt" stroke-miterlimit="10" stroke-linejoin="miter" fill="none" stroke="#404040" d="M234.7091 135.21285H260.22108V89.29149H275.96195"/>
<path transform="matrix(1,0,0,-1,316.81687,112.85251)" d="M5.44046 0 1.28699 1.5706 2.66432 0 1.28699-1.5706Z" fill="#404040"/>
<path transform="matrix(1,0,0,-1,316.81687,112.85251)" stroke-width=".79701" stroke-linecap="butt" stroke-miterlimit="10" stroke-linejoin="miter" fill="none" stroke="#404040" d="M5.44046 0 1.28699 1.5706 2.66432 0 1.28699-1.5706Z"/>
<path transform="matrix(1,0,0,-1,43.32,202.144)" stroke-width=".79701" stroke-linecap="butt" stroke-miterlimit="10" stroke-linejoin="miter" fill="none" stroke="#404040" d="M242.36278 89.29144 275.96195 89.29149"/>
<path transform="matrix(1,0,0,-1,316.81687,112.85251)" d="M5.44046 0 1.28699 1.5706 2.66432 0 1.28699-1.5706Z" fill="#404040"/>
<path transform="matrix(1,0,0,-1,316.81687,112.85251)" stroke-width=".79701" stroke-linecap="butt" stroke-miterlimit="10" stroke-linejoin="miter" fill="none" stroke="#404040" d="M5.44046 0 1.28699 1.5706 2.66432 0 1.28699-1.5706Z"/>
<path transform="matrix(1,0,0,-1,43.32,202.144)" stroke-width=".79701" stroke-linecap="butt" stroke-miterlimit="10" stroke-linejoin="miter" fill="none" stroke="#404040" d="M232.15816 17.85817H257.6701V89.29149H275.96195"/>
<path transform="matrix(1,0,0,-1,316.81687,112.85251)" d="M5.44046 0 1.28699 1.5706 2.66432 0 1.28699-1.5706Z" fill="#404040"/>
<path transform="matrix(1,0,0,-1,316.81687,112.85251)" stroke-width=".79701" stroke-linecap="butt" stroke-miterlimit="10" stroke-linejoin="miter" fill="none" stroke="#404040" d="M5.44046 0 1.28699 1.5706 2.66432 0 1.28699-1.5706Z"/>
<path transform="matrix(1,0,0,-1,45.46474,204.28874)" d="M469.2329 105.95412H398.1736C395.97267 105.95412 394.18849 104.16995 394.18849 101.96901V76.61464C394.18849 74.4137 395.97267 72.62953 398.1736 72.62953H469.2329C471.43385 72.62953 473.21803 74.4137 473.21803 76.61464V101.96901C473.21803 104.16995 471.43385 105.95412 469.2329 105.95412ZM394.18849 72.62953" fill="#7f807f" fill-opacity=".5"/>
<path transform="matrix(1,0,0,-1,43.32,202.144)" d="M469.2329 105.95412H398.1736C395.97267 105.95412 394.18849 104.16995 394.18849 101.96901V76.61464C394.18849 74.4137 395.97267 72.62953 398.1736 72.62953H469.2329C471.43385 72.62953 473.21803 74.4137 473.21803 76.61464V101.96901C473.21803 104.16995 471.43385 105.95412 469.2329 105.95412ZM394.18849 72.62953" fill="#fff2e6"/>
<path transform="matrix(1,0,0,-1,43.32,202.144)" stroke-width=".3985" stroke-linecap="butt" stroke-miterlimit="10" stroke-linejoin="miter" fill="none" stroke="#cc6600" d="M469.2329 105.95412H398.1736C395.97267 105.95412 394.18849 104.16995 394.18849 101.96901V76.61464C394.18849 74.4137 395.97267 72.62953 398.1736 72.62953H469.2329C471.43385 72.62953 473.21803 74.4137 473.21803 76.61464V101.96901C473.21803 104.16995 471.43385 105.95412 469.2329 105.95412ZM394.18849 72.62953"/>
<text xml:space="preserve" transform="matrix(.9 0 -0 .9 44.049226 221.29869)" font-size="8.9664" font-family="Computer Modern" font-weight="bold"><tspan y="-129.461" x="440.492 448.62455 451.5745 456.73017 462.03828 467.9292 467.9292 473.2373 477.42463 481.54917 484.4991 489.21546 498.06529 504.73628 507.68623 513.57717 518.73287">Diagn&#x00b4;osticoFinal</tspan><tspan y="-118.502" x="450.953 458.61927 463.92738 469.8183 474.0056 478.87437 484.7653 488.9526 494.84355 499.9992 505.89015">Consensuado</tspan><tspan y="-107.543" x="447.563 451.68754 458.65443 461.90028 469.56657 477.9053 482.2809 487.43659 493.3275 502.1684 506.46333 510.46235">(Ej:GradoII)</tspan></text>
<path transform="matrix(1,0,0,-1,43.32,202.144)" stroke-width="1.59404" stroke-linecap="butt" stroke-miterlimit="10" stroke-linejoin="miter" fill="none" stroke="#cc6600" d="M383.23606 89.29149H387.80448"/>
<path transform="matrix(1,0,0,-1,427.16566,112.85251)" d="M7.89215 0 2.57367 2.02063 4.3573 0 2.57367-2.02063Z" fill="#cc6600"/>
<path transform="matrix(1,0,0,-1,427.16566,112.85251)" stroke-width="1.59404" stroke-linecap="butt" stroke-miterlimit="10" stroke-linejoin="miter" fill="none" stroke="#cc6600" d="M7.89215 0 2.57367 2.02063 4.3573 0 2.57367-2.02063Z"/>
<text fill="#7f807f" xml:space="preserve" transform="matrix(.9 0 -0 .9 1.5073004 214.9691)" font-size="6.9738" font-family="Computer Modern" font-weight="bold"><tspan y="-170.839" x="15.073 19.968607 24.362103 27.932688 35.087808 39.599855 46.155229 52.041116 56.797246 60.319017 64.049999 68.44349 73.450679">Fase1:Entrada</tspan></text>
<text fill="#7f807f" xml:space="preserve" transform="matrix(.9 0 -0 .9 11.704895 211.27539)" font-size="6.9738" font-family="Computer Modern" font-weight="bold"><tspan y="-207.776" x="117.049 121.94462 126.33811 129.90869 137.06381 141.57587 148.13124 154.5053 158.89879 163.41085 167.9229 170.45439 175.46158">Fase2:Bagging</tspan></text>
<text fill="#7f807f" xml:space="preserve" transform="matrix(.9 0 -0 .9 20.241303 210.7303)" font-size="6.9738" font-family="Computer Modern" font-weight="bold"><tspan y="-213.227" x="202.413 207.3086 211.70209 215.27268 222.4278 226.93985 233.49523 239.86928 244.38134 247.95192 252.71503 257.72224 264.87736">Fase3:Bosque(</tspan><tspan y="-214.912" x="269.526">&#x00b4;</tspan><tspan y="-213.227" x="268.408 275.15864 278.88963 284.1409 288.65995 291.19145 295.31294 298.8835">Arboles)</tspan></text>
<text fill="#7f807f" xml:space="preserve" transform="matrix(.9 0 -0 .9 34.114015 217.1431)" font-size="6.9738" font-family="Computer Modern" font-weight="bold"><tspan y="-149.099" x="341.14 346.03565 350.42915 353.99974 361.15486 365.6739 372.2223 378.97294 383.485 387.21598 391.34446 395.8565 400.25 404.2669 406.7984 406.79145 411.3035">Fase4:Agregaci&#x00b4;on</tspan></text>
</svg>
