<svg xmlns="http://www.w3.org/2000/svg" xmlns:xlink="http://www.w3.org/1999/xlink" xmlns:inkscape="http://www.inkscape.org/namespaces/inkscape" version="1.1" width="196.876" height="164.759" viewBox="0 0 196.876 164.759">
<defs>
<clipPath id="clip_1">
<path transform="matrix(1,0,0,-1,2.214,161.792)" d="M0 0H194.26607V161.39575H0Z"/>
</clipPath>
</defs>
<path transform="matrix(1,0,0,-1,2.214,161.792)" stroke-width=".3985" stroke-linecap="butt" stroke-dasharray="2.98883,2.98883" stroke-miterlimit="10" stroke-linejoin="miter" fill="none" stroke="#d9d9d9" d="M7.47177 0V161.39575M37.35886 0V161.39575M67.24594 0V161.39575M127.02013 0V161.39575M156.90721 0V161.39575M186.7943 0V161.39575"/>
<path transform="matrix(1,0,0,-1,2.214,161.792)" stroke-width=".3985" stroke-linecap="butt" stroke-dasharray="2.98883,2.98883" stroke-miterlimit="10" stroke-linejoin="miter" fill="none" stroke="#d9d9d9" d="M0 80.69788H194.26607M0 147.9461H194.26607"/>
<path transform="matrix(1,0,0,-1,2.214,161.792)" stroke-width=".19925" stroke-linecap="butt" stroke-miterlimit="10" stroke-linejoin="miter" fill="none" stroke="#7f807f" d="M7.47177 11.32335V15.57591M37.35886 11.32335V15.57591M67.24594 11.32335V15.57591M127.02013 11.32335V15.57591M156.90721 11.32335V15.57591M186.7943 11.32335V15.57591"/>
<path transform="matrix(1,0,0,-1,2.214,161.792)" stroke-width=".19925" stroke-linecap="butt" stroke-miterlimit="10" stroke-linejoin="miter" fill="none" stroke="#7f807f" d="M95.00717 80.69788H99.25888M95.00717 147.9461H99.25888"/>
<path transform="matrix(1,0,0,-1,2.214,161.792)" stroke-width=".79701" stroke-linecap="butt" stroke-miterlimit="10" stroke-linejoin="miter" fill="none" stroke="#000000" d="M0 13.44965H191.67581"/>
<path transform="matrix(1,0,0,-1,193.88982,148.34236)" d="M2.59026 0-1.55415 2.0722 0 0-1.55415-2.0722"/>
<path transform="matrix(1,0,0,-1,2.214,161.792)" stroke-width=".79701" stroke-linecap="butt" stroke-miterlimit="10" stroke-linejoin="miter" fill="none" stroke="#000000" d="M97.13303 0V158.80548"/>
<path transform="matrix(0,-1,-1,-0,99.34703,2.9865266)" d="M2.59026 0-1.55415 2.0722 0 0-1.55415-2.0722"/>
<text xml:space="preserve" transform="matrix(1 0 -0 1 0 164.759)" font-size="9.9626" font-family="Computer Modern" font-style="italic"><tspan y="-4.151" x="3.321">&#x2212;</tspan></text>
<text xml:space="preserve" transform="matrix(1 0 -0 1 0 164.759)" font-size="9.9626" font-family="Computer Modern"><tspan y="-4.151" x="11.071903">6</tspan></text>
<text xml:space="preserve" transform="matrix(1 0 -0 1 0 164.759)" font-size="9.9626" font-family="Computer Modern" font-style="italic"><tspan y="-4.151" x="33.207">&#x2212;</tspan></text>
<text xml:space="preserve" transform="matrix(1 0 -0 1 0 164.759)" font-size="9.9626" font-family="Computer Modern"><tspan y="-4.151" x="40.957906">4</tspan></text>
<text xml:space="preserve" transform="matrix(1 0 -0 1 0 164.759)" font-size="9.9626" font-family="Computer Modern" font-style="italic"><tspan y="-4.151" x="63.094">&#x2212;</tspan></text>
<text xml:space="preserve" transform="matrix(1 0 -0 1 0 164.759)" font-size="9.9626" font-family="Computer Modern"><tspan y="-4.151" x="70.8449">2</tspan></text>
<text xml:space="preserve" transform="matrix(1 0 -0 1 0 164.759)" font-size="9.9626" font-family="Computer Modern"><tspan y="-4.151" x="126.742">2</tspan></text>
<text xml:space="preserve" transform="matrix(1 0 -0 1 0 164.759)" font-size="9.9626" font-family="Computer Modern"><tspan y="-4.151" x="156.628">4</tspan></text>
<text xml:space="preserve" transform="matrix(1 0 -0 1 0 164.759)" font-size="9.9626" font-family="Computer Modern"><tspan y="-4.151" x="186.515">6</tspan></text>
<text xml:space="preserve" transform="matrix(1 0 -0 1 -.0000076293949 164.759)" font-size="9.9626" font-family="Computer Modern"><tspan y="-80.454" x="80.771">0</tspan></text>
<text xml:space="preserve" transform="matrix(1 0 -0 1 -.0000076293949 164.759)" font-size="9.9626" font-family="Computer Modern" font-style="italic"><tspan y="-80.454" x="85.752307">.</tspan></text>
<text xml:space="preserve" transform="matrix(1 0 -0 1 -.0000076293949 164.759)" font-size="9.9626" font-family="Computer Modern"><tspan y="-80.454" x="88.521907">5</tspan></text>
<text xml:space="preserve" transform="matrix(1 0 -0 1 0 164.75902)" font-size="9.9626" font-family="Computer Modern"><tspan y="-147.701" x="88.52">1</tspan></text>
<g clip-path="url(#clip_1)">
<path transform="matrix(1,0,0,-1,2.214,161.792)" stroke-width="1.59404" stroke-linecap="butt" stroke-miterlimit="10" stroke-linejoin="miter" fill="none" stroke="#ff0000" d="M7.47177 13.7822 9.28291 13.82494 11.09407 13.87314 12.90523 13.9275 14.71638 13.98883 16.52754 14.05801 18.3387 14.13599 20.14986 14.22395 21.96101 14.32307 23.77216 14.43475 25.58333 14.56061 27.39449 14.70245 29.20564 14.86224 31.0168 15.04208 32.82796 15.24449 34.63911 15.47234 36.45026 15.72841 38.26143 16.01663 40.07257 16.34024 41.88374 16.70364 43.6949 17.11143 45.50606 17.56886 47.31721 18.08142 49.12836 18.6549 50.93953 19.29646 52.75067 20.01306 54.56184 20.81264 56.37299 21.70302 58.18416 22.69344 59.99532 23.79282 61.80646 25.01094 63.61763 26.35793 65.42877 27.84479 67.23994 29.47623 69.05109 31.26906 70.86224 33.22734 72.6734 35.3591 74.48456 37.6738 76.29572 40.17676 78.10687 42.86668 79.91805 45.74628 81.72919 48.81413 83.54034 52.06087 85.3515 55.48247 87.16266 59.06142 88.97382 62.7816 90.78497 66.6255 92.59613 70.5676 94.40729 74.5823 96.21844 78.64008 98.0296 82.70857 99.84076 86.76904 101.65192 90.78241 103.46307 94.72314 105.27423 98.57109 107.08539 102.29396 108.89653 105.87291 110.7077 109.2999 112.51886 112.54933 114.33002 115.61853 116.14117 118.50615 117.95233 121.19743 119.76349 123.69638 121.57463 126.01375 123.3858 128.14417 125.19695 130.10648 127.00812 131.90605 128.81926 133.54286 130.63043 135.03308 132.44159 136.37401 134.25273 137.58988 136.0639 138.69274 137.87505 139.68129 139.68622 140.57434 141.49736 141.37459 143.30854 142.0928 145.11968 142.733 146.93083 143.30867 148.742 143.82109 150.55315 144.28105 152.36432 144.68724 154.17546 145.05039 155.98664 145.37453 157.79778 145.66236 159.60892 145.9179 161.4201 146.15055 163.23125 146.35095 165.0424 146.53389 166.85356 146.69258 168.66472 146.83113 170.47589 146.95891 172.28704 147.0692 174.09819 147.1687 175.90935 147.25614 177.7205 147.33683 179.53166 147.40677 181.34282 147.46595 183.15398 147.52378 184.96514 147.5695 186.77629 147.6112"/>
<path transform="matrix(1,0,0,-1,2.214,161.792)" stroke-width=".3985" stroke-linecap="butt" stroke-dasharray="2.98883,2.98883" stroke-miterlimit="10" stroke-linejoin="miter" fill="none" stroke="#0000ff" d="M7.47177 147.9461H9.28291 11.09407 12.90523 14.71638 16.52754 18.3387 20.14986 21.96101 23.77216 25.58333 27.39449 29.20564 31.0168 32.82796 34.63911 36.45026 38.26143 40.07257 41.88374 43.6949 45.50606 47.31721 49.12836 50.93953 52.75067 54.56184 56.37299 58.18416 59.99532 61.80646 63.61763 65.42877 67.23994 69.05109 70.86224 72.6734 74.48456 76.29572 78.10687 79.91805 81.72919 83.54034 85.3515 87.16266 88.97382 90.78497 92.59613 94.40729 96.21844 98.0296 99.84076 101.65192 103.46307 105.27423 107.08539 108.89653 110.7077 112.51886 114.33002 116.14117 117.95233 119.76349 121.57463 123.3858 125.19695 127.00812 128.81926 130.63043 132.44159 134.25273 136.0639 137.87505 139.68622 141.49736 143.30854 145.11968 146.93083 148.742 150.55315 152.36432 154.17546 155.98664 157.79778 159.60892 161.4201 163.23125 165.0424 166.85356 168.66472 170.47589 172.28704 174.09819 175.90935 177.7205 179.53166 181.34282 183.15398 184.96514 186.77629"/>
<path transform="matrix(1,0,0,-1,2.214,161.792)" stroke-width=".3985" stroke-linecap="butt" stroke-dasharray="2.98883,2.98883" stroke-miterlimit="10" stroke-linejoin="miter" fill="none" stroke="#7f807f" d="M0 80.69788H194.26607"/>
<text xml:space="preserve" transform="matrix(1 0 -0 1 0 164.759)" font-size="9.9626" font-family="Computer Modern" font-style="italic"><tspan y="-118.548" x="132.951">&#x03c3;</tspan></text>
<text xml:space="preserve" transform="matrix(1 0 -0 1 0 164.759)" font-size="9.9626" font-family="Computer Modern"><tspan y="-118.548" x="138.9983">(</tspan></text>
<text xml:space="preserve" transform="matrix(1 0 -0 1 0 164.759)" font-size="9.9626" font-family="Computer Modern" font-style="italic"><tspan y="-118.548" x="142.87377">z</tspan></text>
<text xml:space="preserve" transform="matrix(1 0 -0 1 0 164.759)" font-size="9.9626" font-family="Computer Modern"><tspan y="-118.548" x="147.94474 154.5898">)=</tspan></text>
<text xml:space="preserve" transform="matrix(1 0 -0 1 0 164.759)" font-size="6.9738" font-family="Computer Modern"><tspan y="-122.46999" x="176.003">1</tspan></text>
<path transform="matrix(1,0,0,-1,166.301,43.721)" stroke-width=".398" stroke-linecap="butt" stroke-miterlimit="10" stroke-linejoin="miter" fill="none" stroke="#000000" d="M0 0H23.377"/>
<text xml:space="preserve" transform="matrix(1 0 -0 1 0 164.759)" font-size="6.9738" font-family="Computer Modern"><tspan y="-115.112" x="166.301 170.27606">1+</tspan></text>
<text xml:space="preserve" transform="matrix(1 0 -0 1 0 164.759)" font-size="6.9738" font-family="Computer Modern" font-style="italic"><tspan y="-115.112" x="176.39209">e</tspan></text>
<text xml:space="preserve" transform="matrix(1 0 -0 1 0 164.759)" font-size="4.9813" font-family="Computer Modern" font-style="italic"><tspan y="-117.104999" x="180.168">&#x2212;</tspan></text>
<text xml:space="preserve" transform="matrix(1 0 -0 1 0 164.759)" font-size="4.9813" font-family="Computer Modern" font-style="italic"><tspan y="-117.104999" x="185.56275">z</tspan></text>
</g>
<text xml:space="preserve" transform="matrix(1 0 -0 1 .000015258789 164.759)" font-size="9.9626" font-family="Computer Modern" font-style="italic"><tspan y="-20.135" x="187.687">z</tspan></text>
<text xml:space="preserve" transform="matrix(1 0 -0 1 -.0000076293949 164.759)" font-size="9.9626" font-family="Computer Modern" font-style="italic"><tspan y="-153.17" x="103.065">&#x03c3;</tspan></text>
<text xml:space="preserve" transform="matrix(1 0 -0 1 -.0000076293949 164.759)" font-size="9.9626" font-family="Computer Modern"><tspan y="-153.17" x="109.1123">(</tspan></text>
<text xml:space="preserve" transform="matrix(1 0 -0 1 -.0000076293949 164.759)" font-size="9.9626" font-family="Computer Modern" font-style="italic"><tspan y="-153.17" x="112.98775">z</tspan></text>
<text xml:space="preserve" transform="matrix(1 0 -0 1 -.0000076293949 164.759)" font-size="9.9626" font-family="Computer Modern"><tspan y="-153.17" x="118.05871">)</tspan></text>
</svg>
